<svg xmlns="http://www.w3.org/2000/svg" width="21" height="20" fill="none"><path fill="#CEF240" fill-rule="evenodd" d="M3.043 18.333c0-.345.28-.625.625-.625h13.333a.625.625 0 1 1 0 1.25H3.668a.625.625 0 0 1-.625-.625z" clip-rule="evenodd" opacity=".5"/><path fill="#CEF240" d="M16.235 6.143a2.622 2.622 0 0 0-3.708-3.708l-.591.591.025.075a5.837 5.837 0 0 0 1.395 2.213 5.837 5.837 0 0 0 2.288 1.42l.591-.59z" opacity=".5"/><path fill="#CEF240" d="m11.96 3-.025.025a5.767 5.767 0 0 0 1.42 2.288 5.838 5.838 0 0 0 2.287 1.42l-5.708 5.709c-.385.384-.577.577-.79.742-.25.196-.52.363-.807.5-.243.115-.501.201-1.017.373l-2.723.908a.707.707 0 0 1-.895-.894l.908-2.723c.172-.517.258-.775.374-1.018.136-.286.304-.557.499-.807.165-.212.358-.405.743-.79L11.96 3z"/></svg>