<svg xmlns="http://www.w3.org/2000/svg" width="20" height="21" fill="none"><path fill="#CEF240" d="M10.001 4.845c-.57 0-.88-.134-1.431-.282-1.12-.3-1.861-.926-2.735-1.157-.74-.195-1.701-.294-2.515-.344-.913-.056-1.652.688-1.652 1.603v9.288c0 .926.755 1.675 1.679 1.733.808.05 1.757.149 2.488.342.405.107 1.013.36 1.56.605.838.375 1.535.86 2.606.86 1.072 0 1.769-.485 2.606-.86.548-.246 1.156-.498 1.561-.605.73-.193 1.68-.292 2.488-.342.924-.058 1.679-.807 1.679-1.733V4.665c0-.915-.739-1.659-1.652-1.603-.814.05-1.776.15-2.515.344-.874.23-1.615.856-2.735 1.157-.55.148-.862.282-1.432.282z" opacity=".5"/><path fill="#CEF240" d="M3.562 11.182a.625.625 0 0 1 .758-.455l3.333.833a.625.625 0 1 1-.303 1.213l-3.333-.833a.625.625 0 0 1-.455-.758zm.758-3.788a.625.625 0 1 0-.303 1.212l3.333.834a.625.625 0 1 0 .303-1.213L4.32 7.394zm12.118 3.788a.625.625 0 0 0-.758-.455l-3.333.833a.625.625 0 1 0 .303 1.213l3.333-.833a.625.625 0 0 0 .455-.758zm-.758-3.788a.625.625 0 1 1 .303 1.212l-3.333.834a.625.625 0 1 1-.303-1.213l3.333-.833z"/></svg>