<svg xmlns="http://www.w3.org/2000/svg" width="28" height="28" fill="none"><path fill="#CEF240" fill-rule="evenodd" d="M4.668 5.477V21.81a3.5 3.5 0 0 0 3.5 3.5h11.667a3.5 3.5 0 0 0 3.5-3.5V10.144a3.5 3.5 0 0 0-3.5-3.5h-14a1.167 1.167 0 0 1-1.167-1.167zm3.792 8.166c0-.483.391-.875.875-.875h9.333a.875.875 0 1 1 0 1.75H9.335a.875.875 0 0 1-.875-.875zm0 4.084c0-.483.391-.875.875-.875h6.416a.875.875 0 1 1 0 1.75H9.335a.875.875 0 0 1-.875-.875z" clip-rule="evenodd"/><path fill="#CEF240" d="M21.001 4.667v2.175a3.494 3.494 0 0 0-1.166-.199h-14a1.167 1.167 0 0 1-1.167-1.166v-.083c0-.622.457-1.15 1.073-1.237l12.597-1.8c1.406-.2 2.663.89 2.663 2.31z" opacity=".5"/></svg>