<svg xmlns="http://www.w3.org/2000/svg" width="21" height="20" fill="none"><path fill="#CEF240" d="M7.332 4.167a2.5 2.5 0 1 1-5 0 2.5 2.5 0 0 1 5 0zm11.668 0a2.5 2.5 0 1 1-5 0 2.5 2.5 0 0 1 5 0zM7.332 15.833a2.5 2.5 0 1 1-5 0 2.5 2.5 0 0 1 5 0zm11.668 0a2.5 2.5 0 1 1-5 0 2.5 2.5 0 0 1 5 0z"/><path fill="#CEF240" d="M14.076 3.546A.63.63 0 0 0 14 3.542H7.332a.632.632 0 0 0-.078.004 2.505 2.505 0 0 1 0 1.24.63.63 0 0 0 .078.006h6.667a.63.63 0 0 0 .077-.005 2.506 2.506 0 0 1 0-1.24zm2.423 3.121c.214 0 .422-.027.62-.078a.62.62 0 0 1 .005.078v6.666a.62.62 0 0 1-.005.078 2.506 2.506 0 0 0-1.24 0 .62.62 0 0 1-.005-.078V6.667a.62.62 0 0 1 .005-.078c.198.05.406.078.62.078zm-2.423 8.546a.62.62 0 0 0-.077-.005H7.332a.62.62 0 0 0-.078.005 2.504 2.504 0 0 1 0 1.24.62.62 0 0 0 .078.005h6.667a.62.62 0 0 0 .077-.005 2.506 2.506 0 0 1 0-1.24zM4.832 6.667c-.214 0-.422-.027-.62-.078a.632.632 0 0 0-.005.078v6.666c0 .027.002.052.005.078a2.506 2.506 0 0 1 1.24 0 .63.63 0 0 0 .005-.078V6.667a.632.632 0 0 0-.005-.078c-.198.05-.406.078-.62.078z" opacity=".5"/></svg>