<svg xmlns="http://www.w3.org/2000/svg" width="21" height="20" fill="none"><path fill="#CEF240" d="M3.375 10.625V8.958c0-3.142 0-4.714.976-5.69.91-.91 3.064-.972 5.899-.976a.625.625 0 0 1 1.25 0v15a.625.625 0 1 1-1.25 0c-2.835-.004-4.988-.066-5.899-.977-.976-.976-.976-2.547-.976-5.69z"/><path fill="#CEF240" fill-rule="evenodd" d="M11.992 2.292c0 .345.28.625.625.625h.758c.363 0 .695 0 1.002.002a.625.625 0 0 0 .01-1.25c-.312-.002-.649-.002-1.01-.002h-.76a.625.625 0 0 0-.625.625zm0 15c0 .345.28.625.625.625h.76c.361 0 .698 0 1.01-.003a.625.625 0 0 0-.01-1.25c-.307.003-.639.003-1.002.003h-.758a.625.625 0 0 0-.625.625zm4.192-14.955c-.102.33.082.68.411.783.268.083.454.195.606.346a1.4 1.4 0 0 1 .346.605.625.625 0 0 0 1.194-.37 2.646 2.646 0 0 0-.657-1.119 2.646 2.646 0 0 0-1.118-.656.625.625 0 0 0-.782.411zm0 14.91a.624.624 0 0 0 .782.41c.43-.133.802-.34 1.118-.655.317-.317.523-.69.657-1.119a.625.625 0 1 0-1.194-.37 1.4 1.4 0 0 1-.346.605 1.401 1.401 0 0 1-.606.346.625.625 0 0 0-.41.782zm2.183-11.588a.625.625 0 0 0-.62.63c.003.307.003.64.003 1.003v1.136a.625.625 0 1 0 1.25 0V7.29c0-.362 0-.699-.003-1.011a.625.625 0 0 0-.63-.62zm0 8.265a.625.625 0 0 0 .63-.62c.003-.312.003-.649.003-1.01v-1.139a.625.625 0 0 0-1.25 0v1.137c0 .363 0 .695-.003 1.002a.625.625 0 0 0 .62.63z" clip-rule="evenodd" opacity=".5"/></svg>