<svg xmlns="http://www.w3.org/2000/svg" width="20" height="20" fill="none"><path fill="#CEF240" d="M13.333 18.333c-1.571 0-2.357 0-2.845-.488-.418-.418-.478-1.056-.487-2.22L10 14.375v-8.75l.001-1.25c.009-1.164.069-1.802.487-2.22.488-.488 1.274-.488 2.845-.488H15c1.571 0 2.357 0 2.845.488s.488 1.274.488 2.845v10c0 1.571 0 2.357-.488 2.845s-1.274.488-2.845.488h-1.667z" opacity=".5"/><path fill="#CEF240" d="M12.5 6.875H10v1.25h2.5a.625.625 0 1 0 0-1.25zm-.833-2.5H10v1.25h1.667a.625.625 0 0 0 0-1.25zm0 5H10v1.25h1.667a.625.625 0 0 0 0-1.25zm.833 2.5H10v1.25h2.5a.625.625 0 1 0 0-1.25zm-.833 2.5H10l.001 1.25h1.666a.625.625 0 0 0 0-1.25zm-5.001-1.892v-6.65a6.522 6.522 0 0 1-2.5.491 6.542 6.542 0 0 1-2.5-.49v6.649c0 .519 0 .778.031 1.033.038.3.107.596.208.88.086.243.202.475.434.939l1.224 2.447a.674.674 0 0 0 1.206 0l1.224-2.447c.232-.464.348-.696.434-.938.1-.285.17-.58.208-.881.031-.255.031-.514.031-1.033z"/><path fill="#CEF240" d="M4.166 1.667a2.5 2.5 0 0 1 2.5 2.5v1.666a6.522 6.522 0 0 1-2.5.491 6.542 6.542 0 0 1-2.5-.49V4.166a2.5 2.5 0 0 1 2.5-2.5z" opacity=".5"/></svg>