<svg xmlns="http://www.w3.org/2000/svg" width="28" height="28" fill="none"><path fill="#CEF240" d="M4.485 4.485a3.364 3.364 0 0 0 0 4.758l1.853 1.852c.014-.016.647.587.662.571L11.667 7c.015-.015-.588-.649-.572-.662L9.243 4.485a3.364 3.364 0 0 0-4.758 0zM5.99 17.858a.563.563 0 0 1 1.05 0l.182.466a.565.565 0 0 0 .318.32l.464.183a.567.567 0 0 1 0 1.053l-.464.184a.565.565 0 0 0-.318.319l-.183.466a.563.563 0 0 1-1.049 0l-.183-.466a.565.565 0 0 0-.318-.32l-.464-.183a.567.567 0 0 1 0-1.053l.464-.184a.565.565 0 0 0 .318-.319l.183-.466z" opacity=".5"/><path fill="#CEF240" d="M23.295 10.651a.563.563 0 0 1 1.049 0l.183.466a.565.565 0 0 0 .318.319l.464.184a.567.567 0 0 1 0 1.053l-.464.184a.565.565 0 0 0-.318.319l-.183.465a.563.563 0 0 1-1.05 0l-.182-.466a.565.565 0 0 0-.318-.318l-.464-.184a.567.567 0 0 1 0-1.053l.464-.184a.565.565 0 0 0 .318-.319l.183-.466z" opacity=".2"/><path fill="#CEF240" d="M18.782 2.692a.563.563 0 0 1 1.05 0l.502 1.277a.565.565 0 0 0 .317.32l1.273.503a.567.567 0 0 1 0 1.054l-1.273.504a.565.565 0 0 0-.317.318l-.503 1.278a.563.563 0 0 1-1.049 0l-.502-1.278a.565.565 0 0 0-.318-.318l-1.273-.504a.567.567 0 0 1 0-1.054l1.273-.504a.565.565 0 0 0 .318-.319l.502-1.277z" opacity=".7"/><path fill="#CEF240" d="M12.33 7.572c-.014.016-.648-.587-.663-.572L7 11.666c-.015.016.588.65.572.663l11.186 11.186a3.364 3.364 0 1 0 4.757-4.758L12.329 7.572z"/></svg>