<svg xmlns="http://www.w3.org/2000/svg" width="28" height="28" fill="none"><path fill="#CEF240" d="M2.332 14c0-5.5 0-8.25 1.709-9.958 1.708-1.709 4.458-1.709 9.958-1.709s8.25 0 9.958 1.709C25.665 5.75 25.665 8.5 25.665 14s0 8.25-1.708 9.958c-1.709 1.709-4.459 1.709-9.958 1.709-5.5 0-8.25 0-9.958-1.709C2.332 22.25 2.332 19.5 2.332 14z" opacity=".5"/><path fill="#CEF240" d="M16.918 12.542a.875.875 0 1 1 0-1.75h2.917c.483 0 .875.392.875.875v2.916a.875.875 0 1 1-1.75 0v-.804l-2.348 2.348a2.042 2.042 0 0 1-2.888 0l-1.85-1.85a.292.292 0 0 0-.412 0l-2.675 2.675a.875.875 0 0 1-1.238-1.237l2.675-2.675a2.041 2.041 0 0 1 2.888 0l1.85 1.85a.292.292 0 0 0 .412 0l2.348-2.348h-.804z"/></svg>