<svg xmlns="http://www.w3.org/2000/svg" width="21" height="20" fill="none"><path fill="#CEF240" fill-rule="evenodd" d="m12.372 13.648 4.872-4.858c.702-.7 1.053-1.05 1.238-1.494.185-.445.185-.94.185-1.93v-.472c0-1.521 0-2.282-.475-2.755-.474-.472-1.236-.472-2.762-.472h-.474c-.993 0-1.489 0-1.935.184-.446.184-.797.534-1.499 1.234L6.65 7.942c-.82.818-1.329 1.325-1.525 1.814a1.234 1.234 0 0 0-.094.469c0 .668.54 1.206 1.619 2.282l.145.144 1.699-1.724a.625.625 0 1 1 .89.877l-1.704 1.73.114.114c1.08 1.075 1.619 1.613 2.29 1.613.147 0 .289-.026.432-.079.502-.185 1.015-.696 1.856-1.534zm2.29-5.705c-.633.63-1.658.63-2.29 0a1.61 1.61 0 0 1 0-2.282 1.622 1.622 0 0 1 2.29 0 1.61 1.61 0 0 1 0 2.282z" clip-rule="evenodd"/><path fill="#CEF240" d="m7.862 4.97-2.12 2.112c-.389.389-.746.745-1.028 1.067a5.066 5.066 0 0 0-.516.683l-.02-.02a4.047 4.047 0 0 0-1.458-.956l-.316-.126a.637.637 0 0 1-.216-1.044c.933-.93 2.054-2.048 2.595-2.272a2.817 2.817 0 0 1 1.49-.19c.455.067.885.3 1.589.745zm3.618 11.124c.171.174.285.296.387.427.136.172.257.356.362.548.119.216.21.448.395.91.15.376.649.476.938.187l.07-.07c.934-.93 2.054-2.048 2.28-2.587.198-.476.264-.99.19-1.485-.067-.454-.302-.883-.747-1.585l-2.127 2.12c-.398.398-.763.762-1.094 1.047a5.006 5.006 0 0 1-.653.488z" opacity=".5"/></svg>