<svg xmlns="http://www.w3.org/2000/svg" width="28" height="28" fill="none"><path fill="#CEF240" d="M24.5 18.665v-7c0-3.3 0-4.95-1.025-5.975-.897-.897-2.27-1.01-4.808-1.023H9.333c-2.537.014-3.911.126-4.808 1.023C3.5 6.715 3.5 8.365 3.5 11.665v7c0 3.3 0 4.95 1.025 5.975C5.55 25.665 7.2 25.665 10.5 25.665h7c3.3 0 4.95 0 5.975-1.025 1.025-1.026 1.025-2.675 1.025-5.975z" opacity=".5"/><path fill="#CEF240" d="M9.332 4.083c0-.966.784-1.75 1.75-1.75h5.833c.967 0 1.75.784 1.75 1.75V5.25A1.75 1.75 0 0 1 16.915 7h-5.833a1.75 1.75 0 0 1-1.75-1.75V4.083z"/><path fill="#CEF240" fill-rule="evenodd" d="M18.14 12.236c.33.353.31.907-.043 1.237l-5 4.667a.875.875 0 0 1-1.194 0l-2-1.867a.875.875 0 1 1 1.194-1.28l1.403 1.31 4.403-4.11a.875.875 0 0 1 1.237.043z" clip-rule="evenodd"/></svg>