<svg xmlns="http://www.w3.org/2000/svg" width="28" height="28" fill="none"><path fill="#CEF240" fill-rule="evenodd" d="M16.332 23.917V4.958c0-.85-.002-1.399-.056-1.803-.051-.38-.134-.499-.2-.565-.067-.067-.186-.15-.565-.2-.405-.055-.954-.057-1.804-.057-.85 0-1.399.002-1.804.057-.38.05-.498.133-.565.2-.066.066-.149.185-.2.565-.054.404-.056.954-.056 1.803v18.959h5.25z" clip-rule="evenodd"/><path fill="#CEF240" d="M9.332 10.208a.875.875 0 0 0-.875-.875h-3.5a.875.875 0 0 0-.875.875v13.709h5.25V10.208zm14 5.834a.875.875 0 0 0-.875-.875h-3.5a.875.875 0 0 0-.875.875v7.875h5.25v-7.875z" opacity=".7"/><path fill="#CEF240" d="M2.043 23.917a.875.875 0 0 0 0 1.75h23.333a.875.875 0 1 0 0-1.75H2.043z" opacity=".5"/></svg>