<svg xmlns="http://www.w3.org/2000/svg" width="20" height="20" fill="none"><path fill="#CEF240" d="M5 6.667c0-2.357 0-3.536.732-4.268.732-.732 1.911-.732 4.268-.732 2.357 0 3.536 0 4.268.732C15 3.131 15 4.31 15 6.667v6.667c0 2.357 0 3.535-.732 4.267-.732.733-1.911.733-4.268.733-2.357 0-3.536 0-4.268-.733C5 16.87 5 15.691 5 13.334V6.667z"/><path fill="#CEF240" d="M5.117 3.75c-.118.702-.118 1.635-.118 2.917v6.666c0 1.282 0 2.215.118 2.917h-.118c-1.166 0-1.75 0-2.195-.227a2.079 2.079 0 0 1-.91-.91c-.228-.446-.228-1.03-.228-2.196V7.083c0-1.166 0-1.75.227-2.195.2-.392.519-.711.91-.91C3.25 3.75 3.834 3.75 5 3.75h.118zm9.765 0c.117.702.117 1.635.117 2.917v6.666c0 1.282 0 2.215-.117 2.917h.117c1.167 0 1.75 0 2.196-.227.392-.2.71-.518.91-.91.228-.446.228-1.03.228-2.196V7.083c0-1.166 0-1.75-.227-2.195a2.084 2.084 0 0 0-.91-.91c-.447-.228-1.03-.228-2.197-.228h-.117z" opacity=".5"/></svg>